<svg xmlns="http://www.w3.org/2000/svg" viewBox="0 0 1400 2050" font-family="Inter, -apple-system, system-ui, sans-serif">
  <defs>
    <linearGradient id="headerGrad" x1="0%" y1="0%" x2="100%" y2="0%">
      <stop offset="0%" style="stop-color:#1a1a2e"/>
      <stop offset="100%" style="stop-color:#16213e"/>
    </linearGradient>
    <linearGradient id="dataGrad" x1="0%" y1="0%" x2="0%" y2="100%">
      <stop offset="0%" style="stop-color:#0f3460"/>
      <stop offset="100%" style="stop-color:#1a1a2e"/>
    </linearGradient>
    <linearGradient id="signalGrad" x1="0%" y1="0%" x2="0%" y2="100%">
      <stop offset="0%" style="stop-color:#e94560"/>
      <stop offset="100%" style="stop-color:#c23152"/>
    </linearGradient>
    <linearGradient id="riskGrad" x1="0%" y1="0%" x2="0%" y2="100%">
      <stop offset="0%" style="stop-color:#f59e0b"/>
      <stop offset="100%" style="stop-color:#d97706"/>
    </linearGradient>
    <linearGradient id="reviewGrad" x1="0%" y1="0%" x2="0%" y2="100%">
      <stop offset="0%" style="stop-color:#8b5cf6"/>
      <stop offset="100%" style="stop-color:#7c3aed"/>
    </linearGradient>
    <linearGradient id="outputGrad" x1="0%" y1="0%" x2="0%" y2="100%">
      <stop offset="0%" style="stop-color:#10b981"/>
      <stop offset="100%" style="stop-color:#059669"/>
    </linearGradient>
    <linearGradient id="learnGrad" x1="0%" y1="0%" x2="0%" y2="100%">
      <stop offset="0%" style="stop-color:#6366f1"/>
      <stop offset="100%" style="stop-color:#4f46e5"/>
    </linearGradient>
    <filter id="shadow" x="-2%" y="-2%" width="104%" height="104%">
      <feDropShadow dx="0" dy="2" stdDeviation="4" flood-opacity="0.15"/>
    </filter>
    <filter id="shadowSm" x="-2%" y="-2%" width="104%" height="104%">
      <feDropShadow dx="0" dy="1" stdDeviation="2" flood-opacity="0.1"/>
    </filter>
    <marker id="arrow" viewBox="0 0 10 10" refX="9" refY="5" markerWidth="8" markerHeight="8" orient="auto-start-reverse">
      <path d="M 0 0 L 10 5 L 0 10 z" fill="#64748b"/>
    </marker>
    <marker id="arrowRed" viewBox="0 0 10 10" refX="9" refY="5" markerWidth="8" markerHeight="8" orient="auto-start-reverse">
      <path d="M 0 0 L 10 5 L 0 10 z" fill="#e94560"/>
    </marker>
    <marker id="arrowGreen" viewBox="0 0 10 10" refX="9" refY="5" markerWidth="8" markerHeight="8" orient="auto-start-reverse">
      <path d="M 0 0 L 10 5 L 0 10 z" fill="#10b981"/>
    </marker>
    <marker id="arrowPurple" viewBox="0 0 10 10" refX="9" refY="5" markerWidth="8" markerHeight="8" orient="auto-start-reverse">
      <path d="M 0 0 L 10 5 L 0 10 z" fill="#8b5cf6"/>
    </marker>
  </defs>

  <!-- Background -->
  <rect width="1400" height="2050" fill="#f8fafc"/>

  <!-- ═══════════════ TITLE ═══════════════ -->
  <rect x="40" y="30" width="1320" height="100" rx="16" fill="url(#headerGrad)" filter="url(#shadow)"/>
  <text x="700" y="72" text-anchor="middle" fill="white" font-size="32" font-weight="700" letter-spacing="1">WHEEL COPILOT</text>
  <text x="700" y="105" text-anchor="middle" fill="#94a3b8" font-size="16">AI-Powered Options Trading System — ~$1M Portfolio</text>
  <rect x="1100" y="50" width="220" height="60" rx="10" fill="rgba(255,255,255,0.08)" stroke="rgba(255,255,255,0.15)" stroke-width="1"/>
  <text x="1210" y="72" text-anchor="middle" fill="#94a3b8" font-size="11">3 E*TRADE ACCOUNTS</text>
  <text x="1210" y="93" text-anchor="middle" fill="#e2e8f0" font-size="15" font-weight="600">Taxable | Roth | Trad IRA</text>

  <!-- ═══════════════ LAYER 1: DATA PIPELINE ═══════════════ -->
  <text x="60" y="175" fill="#475569" font-size="13" font-weight="600" letter-spacing="2">DATA PIPELINE</text>
  <line x1="60" y1="182" x2="250" y2="182" stroke="#cbd5e1" stroke-width="1"/>

  <!-- E*Trade -->
  <rect x="60" y="195" width="300" height="145" rx="12" fill="white" stroke="#e2e8f0" stroke-width="1.5" filter="url(#shadowSm)"/>
  <rect x="60" y="195" width="300" height="40" rx="12" fill="url(#dataGrad)"/>
  <rect x="60" y="223" width="300" height="12" fill="url(#dataGrad)"/>
  <text x="210" y="222" text-anchor="middle" fill="white" font-size="14" font-weight="600">E*TRADE API</text>
  <text x="78" y="258" fill="#475569" font-size="12">Live option chains (bid/ask)</text>
  <text x="78" y="278" fill="#475569" font-size="12">Full Greeks: delta, gamma, theta, vega</text>
  <text x="78" y="298" fill="#475569" font-size="12">Portfolio positions + balances</text>
  <text x="78" y="318" fill="#475569" font-size="12">Rate limited: 4 req/s, 25-sym batch</text>
  <circle cx="340" cy="210" r="6" fill="#10b981"/>
  <text x="330" y="210" text-anchor="end" fill="#10b981" font-size="10" font-weight="600">PRIMARY</text>

  <!-- yfinance -->
  <rect x="400" y="195" width="300" height="145" rx="12" fill="white" stroke="#e2e8f0" stroke-width="1.5" filter="url(#shadowSm)"/>
  <rect x="400" y="195" width="300" height="40" rx="12" fill="url(#dataGrad)"/>
  <rect x="400" y="223" width="300" height="12" fill="url(#dataGrad)"/>
  <text x="550" y="222" text-anchor="middle" fill="white" font-size="14" font-weight="600">YFINANCE</text>
  <text x="418" y="258" fill="#475569" font-size="12">Fallback option chains</text>
  <text x="418" y="278" fill="#475569" font-size="12">VIX + SPY macro data</text>
  <text x="418" y="298" fill="#475569" font-size="12">252-day historical for IV rank calc</text>
  <text x="418" y="318" fill="#475569" font-size="12">Price history + technicals</text>
  <circle cx="680" cy="210" r="6" fill="#f59e0b"/>
  <text x="670" y="210" text-anchor="end" fill="#f59e0b" font-size="10" font-weight="600">FALLBACK</text>

  <!-- TradingView -->
  <rect x="740" y="195" width="300" height="145" rx="12" fill="white" stroke="#e2e8f0" stroke-width="1.5" filter="url(#shadowSm)"/>
  <rect x="740" y="195" width="300" height="40" rx="12" fill="url(#dataGrad)"/>
  <rect x="740" y="223" width="300" height="12" fill="url(#dataGrad)"/>
  <text x="890" y="222" text-anchor="middle" fill="white" font-size="14" font-weight="600">TRADINGVIEW</text>
  <text x="758" y="258" fill="#475569" font-size="12">26 technical indicators</text>
  <text x="758" y="278" fill="#475569" font-size="12">STRONG_BUY → STRONG_SELL</text>
  <text x="758" y="298" fill="#475569" font-size="12">Oscillators + Moving Averages</text>
  <text x="758" y="318" fill="#475569" font-size="12">Cached 30 min (disk + memory)</text>

  <!-- Regime Monitor -->
  <rect x="1080" y="195" width="280" height="145" rx="12" fill="white" stroke="#f59e0b" stroke-width="2" filter="url(#shadowSm)"/>
  <rect x="1080" y="195" width="280" height="40" rx="12" fill="url(#riskGrad)"/>
  <rect x="1080" y="223" width="280" height="12" fill="url(#riskGrad)"/>
  <text x="1220" y="222" text-anchor="middle" fill="white" font-size="14" font-weight="600">REGIME MONITOR</text>
  <text x="1098" y="258" fill="#475569" font-size="12">VIX polled every 60 seconds</text>
  <text x="1098" y="278" fill="#92400e" font-size="12" font-weight="600">ATTACK &lt;18 | HOLD 18-25</text>
  <text x="1098" y="298" fill="#92400e" font-size="12" font-weight="600">DEFEND 25-35 | CRISIS &gt;35</text>
  <text x="1098" y="318" fill="#475569" font-size="12">SPY -5% → forced Crisis mode</text>

  <!-- Flow arrows from data to signals -->
  <path d="M 210 340 L 210 380 L 450 380 L 450 410" stroke="#64748b" stroke-width="2" fill="none" marker-end="url(#arrow)"/>
  <path d="M 550 340 L 550 410" stroke="#64748b" stroke-width="2" fill="none" marker-end="url(#arrow)"/>
  <path d="M 890 340 L 890 380 L 650 380 L 650 410" stroke="#64748b" stroke-width="2" fill="none" marker-end="url(#arrow)"/>

  <!-- ═══════════════ LAYER 2: SIGNAL DETECTION ═══════════════ -->
  <text x="60" y="405" fill="#475569" font-size="13" font-weight="600" letter-spacing="2">SIGNAL DETECTION — 17 ALPHA SIGNALS</text>
  <line x1="60" y1="412" x2="370" y2="412" stroke="#cbd5e1" stroke-width="1"/>

  <!-- Put Signals -->
  <rect x="60" y="420" width="620" height="280" rx="12" fill="white" stroke="#e2e8f0" stroke-width="1.5" filter="url(#shadowSm)"/>
  <rect x="60" y="420" width="620" height="40" rx="12" fill="url(#signalGrad)"/>
  <rect x="60" y="448" width="620" height="12" fill="url(#signalGrad)"/>
  <text x="370" y="447" text-anchor="middle" fill="white" font-size="14" font-weight="600">13 PUT SIGNALS — Sell Puts on Weakness/Fear</text>

  <g font-size="11" fill="#475569">
    <text x="78" y="485" font-weight="600" fill="#e94560">Dip Detection</text>
    <text x="78" y="504">Intraday Dip (down 2.5%+)</text>
    <text x="78" y="521">Multi-Day Pullback (3+ red, -5%)</text>
    <text x="78" y="538">Earnings Overreaction (-8%, RSI&lt;25)</text>
    <text x="78" y="555">Sector Rotation (stock down, VIX flat)</text>

    <text x="290" y="485" font-weight="600" fill="#e94560">IV Surface</text>
    <text x="290" y="504">IV Rank Spike (&gt;60, +20 in 5d)</text>
    <text x="290" y="521">Skew Blowout (puts overpriced)</text>
    <text x="290" y="538">Term Inversion (front &gt; back IV)</text>

    <text x="490" y="485" font-weight="600" fill="#e94560">Technical Levels</text>
    <text x="490" y="504">Support Bounce (SMA, 52w low)</text>
    <text x="490" y="521">Oversold RSI (&lt;30)</text>
    <text x="490" y="538">Volume Climax (3x vol, down day)</text>
    <text x="490" y="555">Gap Fill (filling prior close)</text>

    <text x="78" y="580" font-weight="600" fill="#e94560">Macro</text>
    <text x="78" y="599">Macro Fear (VIX &gt;25, rising)</text>
  </g>

  <!-- Signal strength badge -->
  <rect x="490" y="578" width="170" height="44" rx="8" fill="#fef2f2" stroke="#fecaca" stroke-width="1"/>
  <text x="575" y="596" text-anchor="middle" fill="#991b1b" font-size="11" font-weight="600">STRENGTH: 0-100</text>
  <text x="575" y="613" text-anchor="middle" fill="#991b1b" font-size="10">Higher = bigger position</text>

  <!-- Conviction mapping -->
  <rect x="78" y="632" width="580" height="52" rx="8" fill="#f8fafc" stroke="#e2e8f0" stroke-width="1"/>
  <text x="88" y="650" fill="#1e293b" font-size="11" font-weight="600">CONVICTION:</text>
  <rect x="175" y="637" width="65" height="22" rx="4" fill="#dc2626"/>
  <text x="207" y="653" text-anchor="middle" fill="white" font-size="10" font-weight="600">HIGH</text>
  <text x="250" y="653" fill="#475569" font-size="10">3+ signals, avg ≥70</text>
  <rect x="355" y="637" width="65" height="22" rx="4" fill="#f59e0b"/>
  <text x="387" y="653" text-anchor="middle" fill="white" font-size="10" font-weight="600">MEDIUM</text>
  <text x="430" y="653" fill="#475569" font-size="10">2+ signals, avg ≥50</text>
  <rect x="535" y="637" width="65" height="22" rx="4" fill="#6b7280"/>
  <text x="567" y="653" text-anchor="middle" fill="white" font-size="10" font-weight="600">LOW</text>
  <text x="610" y="653" fill="#475569" font-size="10">1 signal</text>
  <text x="88" y="674" fill="#64748b" font-size="10">Single signal = always LOW. You need convergence. Earnings gate blocks new trades through earnings.</text>

  <!-- Call Signals -->
  <rect x="720" y="420" width="320" height="165" rx="12" fill="white" stroke="#e2e8f0" stroke-width="1.5" filter="url(#shadowSm)"/>
  <rect x="720" y="420" width="320" height="40" rx="12" fill="#2563eb"/>
  <rect x="720" y="448" width="320" height="12" fill="#2563eb"/>
  <text x="880" y="447" text-anchor="middle" fill="white" font-size="14" font-weight="600">4 CALL SIGNALS — Calls on Strength</text>

  <g font-size="11" fill="#475569">
    <text x="738" y="485">Overbought RSI (&gt;70)</text>
    <text x="738" y="505">Resistance Test (near 52w high, SMA)</text>
    <text x="738" y="525">Multi-Day Rally (3+ green, +5%)</text>
    <text x="738" y="545">Volume Climax Up (3x vol, up day)</text>
  </g>
  <rect x="738" y="558" width="284" height="18" rx="4" fill="#eff6ff" stroke="#bfdbfe" stroke-width="1"/>
  <text x="880" y="571" text-anchor="middle" fill="#1e40af" font-size="10" font-weight="600">COVERED ONLY — must own 100+ shares</text>

  <!-- Portfolio Engine boxes -->
  <rect x="720" y="605" width="320" height="95" rx="12" fill="white" stroke="#e2e8f0" stroke-width="1.5" filter="url(#shadowSm)"/>
  <text x="738" y="630" fill="#1e293b" font-size="12" font-weight="600">THREE-ENGINE MODEL</text>
  <rect x="738" y="640" width="90" height="28" rx="6" fill="#dbeafe"/>
  <text x="783" y="659" text-anchor="middle" fill="#1e40af" font-size="10" font-weight="600">E1: 45%</text>
  <text x="783" y="685" text-anchor="middle" fill="#64748b" font-size="9">Core Holdings</text>
  <rect x="838" y="640" width="90" height="28" rx="6" fill="#fef3c7"/>
  <text x="883" y="659" text-anchor="middle" fill="#92400e" font-size="10" font-weight="600">E2: 45%</text>
  <text x="883" y="685" text-anchor="middle" fill="#64748b" font-size="9">Active Wheel</text>
  <rect x="938" y="640" width="90" height="28" rx="6" fill="#d1fae5"/>
  <text x="983" y="659" text-anchor="middle" fill="#065f46" font-size="10" font-weight="600">E3: 10%</text>
  <text x="983" y="685" text-anchor="middle" fill="#64748b" font-size="9">Dry Powder</text>

  <!-- Arrows from signals to intelligence layer -->
  <path d="M 370 700 L 370 740" stroke="#e94560" stroke-width="2" fill="none" marker-end="url(#arrowRed)"/>
  <path d="M 880 585 L 880 620 L 1120 620 L 1120 740" stroke="#64748b" stroke-width="2" fill="none" marker-end="url(#arrow)"/>

  <!-- ═══════════════ LAYER 3: INTELLIGENCE ═══════════════ -->
  <text x="60" y="755" fill="#475569" font-size="13" font-weight="600" letter-spacing="2">INTELLIGENCE LAYER</text>
  <line x1="60" y1="762" x2="280" y2="762" stroke="#cbd5e1" stroke-width="1"/>

  <!-- Position Review -->
  <rect x="60" y="770" width="600" height="370" rx="12" fill="white" stroke="#8b5cf6" stroke-width="2" filter="url(#shadow)"/>
  <rect x="60" y="770" width="600" height="42" rx="12" fill="url(#reviewGrad)"/>
  <rect x="60" y="800" width="600" height="12" fill="url(#reviewGrad)"/>
  <text x="360" y="798" text-anchor="middle" fill="white" font-size="15" font-weight="700">POSITION REVIEW — Priority Waterfall</text>

  <rect x="80" y="825" width="560" height="50" rx="8" fill="#fef2f2" stroke="#fca5a5" stroke-width="1"/>
  <text x="95" y="843" fill="#dc2626" font-size="13" font-weight="700">1. CLOSE NOW</text>
  <text x="95" y="862" fill="#7f1d1d" font-size="11">Loss stop hit (2x monthlies, 1.5x weeklies) OR earnings before expiry ≤30 DTE</text>

  <rect x="80" y="883" width="560" height="65" rx="8" fill="#f0fdf4" stroke="#86efac" stroke-width="1"/>
  <text x="95" y="901" fill="#16a34a" font-size="13" font-weight="700">2. TAKE PROFIT</text>
  <text x="95" y="918" fill="#14532d" font-size="11">Moneyness-scaled: Deep OTM (|δ|&lt;0.10) → 80% | Moderate → 50% | Near ATM → 40%</text>
  <text x="95" y="935" fill="#14532d" font-size="11">Time+IV boost: &gt;50% captured + ≤45 DTE + IV rank &gt;60 → take profit early</text>

  <rect x="80" y="956" width="560" height="65" rx="8" fill="#fefce8" stroke="#fde68a" stroke-width="1"/>
  <text x="95" y="974" fill="#ca8a04" font-size="13" font-weight="700">3. WATCH CLOSELY</text>
  <text x="95" y="991" fill="#713f12" font-size="11">Earnings approaching (prescriptive: trigger price + action + dollar risk)</text>
  <text x="95" y="1008" fill="#713f12" font-size="11">TV flipped bearish | Confirmed downtrend | IV collapsed</text>

  <rect x="80" y="1029" width="560" height="42" rx="8" fill="#f8fafc" stroke="#cbd5e1" stroke-width="1"/>
  <text x="95" y="1047" fill="#475569" font-size="13" font-weight="700">4. HOLD</text>
  <text x="95" y="1062" fill="#64748b" font-size="11">Thesis intact. TV consensus healthy. Trend confirmed.</text>

  <!-- Roll safety -->
  <rect x="80" y="1080" width="560" height="46" rx="8" fill="#eff6ff" stroke="#bfdbfe" stroke-width="1"/>
  <text x="95" y="1098" fill="#1e40af" font-size="11" font-weight="600">ROLL SAFETY GATES</text>
  <text x="95" y="1115" fill="#1e40af" font-size="10">Puts never roll UP | Calls never roll DOWN | Debit &gt; premium → blocked | Stress tested</text>

  <!-- Risk Management -->
  <rect x="700" y="770" width="660" height="370" rx="12" fill="white" stroke="#f59e0b" stroke-width="2" filter="url(#shadow)"/>
  <rect x="700" y="770" width="660" height="42" rx="12" fill="url(#riskGrad)"/>
  <rect x="700" y="800" width="660" height="12" fill="url(#riskGrad)"/>
  <text x="1030" y="798" text-anchor="middle" fill="white" font-size="15" font-weight="700">RISK MANAGEMENT</text>

  <text x="718" y="835" fill="#1e293b" font-size="12" font-weight="700">Greek-Aware Roll Engine</text>

  <rect x="718" y="845" width="300" height="88" rx="8" fill="#fffbeb" stroke="#fde68a" stroke-width="1"/>
  <text x="730" y="863" fill="#92400e" font-size="11" font-weight="600">Delta Targeting</text>
  <text x="730" y="880" fill="#78350f" font-size="10">Normal IV: put 0.22 target | call 0.25</text>
  <text x="730" y="895" fill="#78350f" font-size="10">High IV (&gt;60): put 0.16 | call 0.18</text>
  <text x="730" y="910" fill="#78350f" font-size="10">Go further OTM when IV is elevated</text>

  <rect x="1030" y="845" width="310" height="88" rx="8" fill="#fef2f2" stroke="#fecaca" stroke-width="1"/>
  <text x="1042" y="863" fill="#991b1b" font-size="11" font-weight="600">Stress Testing (Per Contract)</text>
  <text x="1042" y="880" fill="#7f1d1d" font-size="10">10% stock drop → dollar loss or "safe"</text>
  <text x="1042" y="895" fill="#7f1d1d" font-size="10">20% stock drop → dollar loss</text>
  <text x="1042" y="910" fill="#7f1d1d" font-size="10">Risk/Reward &gt; 3:1 → ROLL BLOCKED</text>

  <text x="718" y="955" fill="#1e293b" font-size="12" font-weight="700">Portfolio Risk Limits</text>

  <g font-size="10.5" fill="#475569">
    <rect x="718" y="965" width="310" height="120" rx="8" fill="#f8fafc" stroke="#e2e8f0" stroke-width="1"/>
    <text x="730" y="984" font-weight="600" fill="#1e293b">Greek Limits by Regime</text>
    <text x="730" y="1000">ATTACK: delta 200-500 SPY-equiv</text>
    <text x="730" y="1015">HOLD: delta 100-300</text>
    <text x="730" y="1030">DEFEND: delta -100 to 150</text>
    <text x="730" y="1045">CRISIS: delta -200 to 50</text>
    <text x="730" y="1063">Vega cap: 2% NLV per 1pt IV move</text>
    <text x="730" y="1078">Max portfolio beta: 1.50</text>

    <rect x="1040" y="965" width="300" height="120" rx="8" fill="#f8fafc" stroke="#e2e8f0" stroke-width="1"/>
    <text x="1052" y="984" font-weight="600" fill="#1e293b">Concentration Limits</text>
    <text x="1052" y="1000">Max 10% NLV per name</text>
    <text x="1052" y="1015">Max 35% NLV per sector</text>
    <text x="1052" y="1030">Loss stop: 2x monthlies, 1.5x weeklies</text>
    <text x="1052" y="1048" font-weight="600" fill="#1e293b">Position Sizing</text>
    <text x="1052" y="1063">HIGH: 3-5% | MED: 1.5-3% | LOW: 0.5-1.5%</text>
    <text x="1052" y="1078">Single signal = always LOW conviction</text>
  </g>

  <!-- Arrows to strike selection -->
  <path d="M 360 1140 L 360 1180" stroke="#8b5cf6" stroke-width="2" fill="none" marker-end="url(#arrowPurple)"/>
  <path d="M 1030 1090 L 1030 1155 L 700 1155 L 700 1180" stroke="#64748b" stroke-width="2" fill="none" marker-end="url(#arrow)"/>

  <!-- ═══════════════ LAYER 4: STRIKE SELECTION ═══════════════ -->
  <text x="60" y="1178" fill="#475569" font-size="13" font-weight="600" letter-spacing="2">STRIKE SELECTION</text>
  <line x1="60" y1="1185" x2="260" y2="1185" stroke="#cbd5e1" stroke-width="1"/>

  <rect x="60" y="1195" width="1300" height="130" rx="12" fill="white" stroke="#e2e8f0" stroke-width="1.5" filter="url(#shadowSm)"/>

  <text x="80" y="1223" fill="#e94560" font-size="13" font-weight="700">PUT STRIKES (Support Below Price)</text>
  <g font-size="11" fill="#475569">
    <rect x="80" y="1233" width="100" height="26" rx="6" fill="#fef2f2"/>
    <text x="130" y="1251" text-anchor="middle">200 SMA</text>
    <rect x="190" y="1233" width="90" height="26" rx="6" fill="#fef2f2"/>
    <text x="235" y="1251" text-anchor="middle">50 SMA</text>
    <rect x="290" y="1233" width="95" height="26" rx="6" fill="#fef2f2"/>
    <text x="337" y="1251" text-anchor="middle">52w Low</text>
    <rect x="395" y="1233" width="105" height="26" rx="6" fill="#fef2f2"/>
    <text x="447" y="1251" text-anchor="middle">Swing Low</text>
    <rect x="510" y="1233" width="95" height="26" rx="6" fill="#fef2f2"/>
    <text x="557" y="1251" text-anchor="middle">90d VWAP</text>
  </g>

  <text x="80" y="1288" fill="#2563eb" font-size="13" font-weight="700">CALL STRIKES (Resistance Above Price)</text>
  <g font-size="11" fill="#475569">
    <rect x="80" y="1297" width="95" height="26" rx="6" fill="#eff6ff"/>
    <text x="127" y="1315" text-anchor="middle">52w High</text>
    <rect x="185" y="1297" width="100" height="26" rx="6" fill="#eff6ff"/>
    <text x="235" y="1315" text-anchor="middle">200 SMA</text>
    <rect x="295" y="1297" width="90" height="26" rx="6" fill="#eff6ff"/>
    <text x="340" y="1315" text-anchor="middle">50 SMA</text>
    <rect x="395" y="1297" width="115" height="26" rx="6" fill="#eff6ff"/>
    <text x="452" y="1315" text-anchor="middle">Swing High</text>
  </g>

  <rect x="750" y="1210" width="580" height="95" rx="10" fill="#f8fafc" stroke="#e2e8f0" stroke-width="1"/>
  <text x="770" y="1235" fill="#1e293b" font-size="12" font-weight="600">Strike Scoring</text>
  <text x="770" y="1255" fill="#475569" font-size="11">Delta proximity (30%) + Yield (40%) + Technical level (30%)</text>
  <text x="770" y="1275" fill="#475569" font-size="11">Real chain data from E*Trade when available; estimated otherwise</text>
  <text x="770" y="1295" fill="#475569" font-size="11">TradingView consensus adjusts: STRONG_SELL → SKIP, BUY → upgrade</text>

  <!-- Arrow to output -->
  <path d="M 700 1325 L 700 1368" stroke="#10b981" stroke-width="2" fill="none" marker-end="url(#arrowGreen)"/>

  <!-- ═══════════════ LAYER 5: OUTPUT ═══════════════ -->
  <text x="60" y="1365" fill="#475569" font-size="13" font-weight="600" letter-spacing="2">BRIEFING OUTPUT</text>
  <line x1="60" y1="1372" x2="250" y2="1372" stroke="#cbd5e1" stroke-width="1"/>

  <rect x="60" y="1382" width="780" height="310" rx="12" fill="white" stroke="#10b981" stroke-width="2" filter="url(#shadow)"/>
  <rect x="60" y="1382" width="780" height="42" rx="12" fill="url(#outputGrad)"/>
  <rect x="60" y="1412" width="780" height="12" fill="url(#outputGrad)"/>
  <text x="450" y="1410" text-anchor="middle" fill="white" font-size="15" font-weight="700">COLOR-CODED BRIEFING — 5x Daily</text>

  <!-- Briefing section boxes -->
  <rect x="80" y="1437" width="170" height="50" rx="8" fill="#dc2626"/>
  <text x="165" y="1458" text-anchor="middle" fill="white" font-size="13" font-weight="700">DO NOW</text>
  <text x="165" y="1476" text-anchor="middle" fill="#fecaca" font-size="9">Close/Roll + HIGH trades</text>

  <rect x="260" y="1437" width="170" height="50" rx="8" fill="#3498db"/>
  <text x="345" y="1458" text-anchor="middle" fill="white" font-size="13" font-weight="700">CONSIDER</text>
  <text x="345" y="1476" text-anchor="middle" fill="#bfdbfe" font-size="9">MEDIUM + LOW trades</text>

  <rect x="440" y="1437" width="170" height="50" rx="8" fill="#f59e0b"/>
  <text x="525" y="1458" text-anchor="middle" fill="white" font-size="13" font-weight="700">WATCH</text>
  <text x="525" y="1476" text-anchor="middle" fill="#fef3c7" font-size="9">Positions + Earnings</text>

  <rect x="620" y="1437" width="100" height="50" rx="8" fill="#6b7280"/>
  <text x="670" y="1458" text-anchor="middle" fill="white" font-size="13" font-weight="700">SKIP</text>
  <text x="670" y="1476" text-anchor="middle" fill="#d1d5db" font-size="9">With reason</text>

  <rect x="730" y="1437" width="90" height="50" rx="8" fill="#1abc9c"/>
  <text x="775" y="1458" text-anchor="middle" fill="white" font-size="11" font-weight="700">ANALYST</text>
  <text x="775" y="1476" text-anchor="middle" fill="#d1fae5" font-size="9">AI reasoning</text>

  <!-- Example terminal output -->
  <rect x="80" y="1500" width="740" height="170" rx="8" fill="#0f172a" stroke="#334155" stroke-width="1"/>
  <g font-family="'SF Mono', 'Fira Code', Menlo, monospace" font-size="10.5" fill="#e2e8f0">
    <text x="95" y="1520" fill="#94a3b8">============================================================</text>
    <text x="95" y="1537" fill="white" font-weight="600">  WHEEL COPILOT — Tuesday, April 14, 2026</text>
    <text x="95" y="1554" fill="#fbbf24">  HOLD | VIX 18.4 | SPY </text><text x="353" y="1554" fill="#2ecc71">+1.22%</text>
    <text x="95" y="1571" fill="#94a3b8">============================================================</text>
    <text x="95" y="1591" fill="#2ecc71" font-weight="600">━━ DO NOW ━━</text>
    <text x="95" y="1608" fill="#2ecc71">  TAKE PROFIT: MU -1x May 15 $320 put</text>
    <text x="95" y="1625" fill="#2ecc71">    P&amp;L: +$447 (+64%) | 31d left in high IV (rank 100)</text>
    <text x="95" y="1645" fill="#f39c12" font-weight="600">━━ WATCH ━━</text>
    <text x="95" y="1662" fill="#e2e8f0">  AMZN -1x $230 put — Set alert at $242. Buy to close if hit.</text>
  </g>

  <!-- Schedule -->
  <rect x="880" y="1382" width="480" height="155" rx="12" fill="white" stroke="#e2e8f0" stroke-width="1.5" filter="url(#shadowSm)"/>
  <text x="900" y="1412" fill="#1e293b" font-size="13" font-weight="700">ANALYSIS SCHEDULE</text>
  <g font-size="11" fill="#475569">
    <text x="900" y="1437">8:00 AM</text><text x="980" y="1437" font-weight="600" fill="#1e293b">Morning Briefing</text><text x="1200" y="1437" fill="#10b981">Always Push</text>
    <text x="900" y="1457">10:30 AM</text><text x="980" y="1457" font-weight="600" fill="#1e293b">Post-Opening</text><text x="1200" y="1457" fill="#64748b">If changed</text>
    <text x="900" y="1477">1:00 PM</text><text x="980" y="1477" font-weight="600" fill="#1e293b">Midday Check</text><text x="1200" y="1477" fill="#64748b">If unhealthy</text>
    <text x="900" y="1497">3:30 PM</text><text x="980" y="1497" font-weight="600" fill="#1e293b">End-of-Day</text><text x="1200" y="1497" fill="#64748b">If action</text>
    <text x="900" y="1517">4:30 PM</text><text x="980" y="1517" font-weight="600" fill="#1e293b">Post-Market</text><text x="1200" y="1517" fill="#10b981">Always Push</text>
    <text x="900" y="1531" fill="#94a3b8" font-size="10">Pre-market sentinel: 6:00, 7:00, 7:30 AM</text>
  </g>

  <!-- Tax & Account Routing -->
  <rect x="880" y="1550" width="480" height="145" rx="12" fill="white" stroke="#e2e8f0" stroke-width="1.5" filter="url(#shadowSm)"/>
  <text x="900" y="1580" fill="#1e293b" font-size="13" font-weight="700">TAX + ACCOUNT ROUTING</text>
  <g font-size="11">
    <rect x="900" y="1590" width="140" height="26" rx="6" fill="#d1fae5"/>
    <text x="970" y="1608" text-anchor="middle" fill="#065f46" font-weight="600">ROTH IRA</text>
    <text x="1050" y="1608" fill="#475569">← Premium income (tax-free)</text>

    <rect x="900" y="1622" width="140" height="26" rx="6" fill="#dbeafe"/>
    <text x="970" y="1640" text-anchor="middle" fill="#1e40af" font-weight="600">TRAD IRA</text>
    <text x="1050" y="1640" fill="#475569">← Tax-deferred overflow</text>

    <rect x="900" y="1654" width="140" height="26" rx="6" fill="#fef3c7"/>
    <text x="970" y="1672" text-anchor="middle" fill="#92400e" font-weight="600">TAXABLE</text>
    <text x="1050" y="1672" fill="#475569">← Spreads, strangles, LTCG</text>

    <text x="900" y="1692" fill="#dc2626" font-size="10" font-weight="600">Wash sale: 30 cal day block | LTCG: 365 day protection | NIIT 3.8%</text>
  </g>

  <!-- ═══════════════ LAYER 6: LEARNING LOOP ═══════════════ -->
  <text x="60" y="1735" fill="#475569" font-size="13" font-weight="600" letter-spacing="2">SELF-TUNING LOOP</text>
  <line x1="60" y1="1742" x2="250" y2="1742" stroke="#cbd5e1" stroke-width="1"/>

  <rect x="60" y="1752" width="1300" height="130" rx="12" fill="white" stroke="#6366f1" stroke-width="2" filter="url(#shadow)"/>
  <rect x="60" y="1752" width="1300" height="42" rx="12" fill="url(#learnGrad)"/>
  <rect x="60" y="1782" width="1300" height="12" fill="url(#learnGrad)"/>
  <text x="700" y="1780" text-anchor="middle" fill="white" font-size="15" font-weight="700">WEEKLY LEARNING LOOP — Saturdays</text>

  <rect x="80" y="1805" width="230" height="60" rx="8" fill="#eef2ff" stroke="#c7d2fe" stroke-width="1"/>
  <text x="195" y="1828" text-anchor="middle" fill="#3730a3" font-size="12" font-weight="600">Walk-Forward Backtest</text>
  <text x="195" y="1845" text-anchor="middle" fill="#4338ca" font-size="10">Train 252d → Test 126d → Step 63d</text>
  <text x="195" y="1858" text-anchor="middle" fill="#4338ca" font-size="10">OOS Sharpe &lt; 0.8 → flag signal</text>

  <path d="M 310 1835 L 340 1835" stroke="#6366f1" stroke-width="2" fill="none" marker-end="url(#arrow)"/>

  <rect x="350" y="1805" width="230" height="60" rx="8" fill="#eef2ff" stroke="#c7d2fe" stroke-width="1"/>
  <text x="465" y="1828" text-anchor="middle" fill="#3730a3" font-size="12" font-weight="600">Signal Weight Adjust</text>
  <text x="465" y="1845" text-anchor="middle" fill="#4338ca" font-size="10">Sharpe &gt;2 + WR &gt;70% → +10%</text>
  <text x="465" y="1858" text-anchor="middle" fill="#4338ca" font-size="10">Max 15% change per cycle</text>

  <path d="M 580 1835 L 610 1835" stroke="#6366f1" stroke-width="2" fill="none" marker-end="url(#arrow)"/>

  <rect x="620" y="1805" width="230" height="60" rx="8" fill="#eef2ff" stroke="#c7d2fe" stroke-width="1"/>
  <text x="735" y="1828" text-anchor="middle" fill="#3730a3" font-size="12" font-weight="600">Attribution Analysis</text>
  <text x="735" y="1845" text-anchor="middle" fill="#4338ca" font-size="10">Per-signal performance tracking</text>
  <text x="735" y="1858" text-anchor="middle" fill="#4338ca" font-size="10">Which signals actually make money?</text>

  <path d="M 850 1835 L 880 1835" stroke="#6366f1" stroke-width="2" fill="none" marker-end="url(#arrow)"/>

  <rect x="890" y="1805" width="230" height="60" rx="8" fill="#eef2ff" stroke="#c7d2fe" stroke-width="1"/>
  <text x="1005" y="1828" text-anchor="middle" fill="#3730a3" font-size="12" font-weight="600">Benchmark Check</text>
  <text x="1005" y="1845" text-anchor="middle" fill="#4338ca" font-size="10">vs SPY, QQQ, vanilla wheel</text>
  <text x="1005" y="1858" text-anchor="middle" fill="#4338ca" font-size="10">3mo underperform → simplify</text>

  <!-- ═══════════════ FOOTER ═══════════════ -->
  <rect x="60" y="1910" width="1300" height="80" rx="12" fill="#1e293b" filter="url(#shadow)"/>
  <text x="700" y="1942" text-anchor="middle" fill="#e2e8f0" font-size="14" font-weight="600">TARGET: 25-40% Annualized | Go-Live: WR ≥55%, HIGH WR ≥65%, Max DD &lt;12%</text>
  <text x="700" y="1967" text-anchor="middle" fill="#94a3b8" font-size="12">Manual approval → Auto-close M3 → Auto-HIGH M4 → Auto-HIGH+MED M5+ | Telegram + Email delivery</text>

</svg>
